<?xml version="1.0" encoding="UTF-8" standalone="no"?>
<!DOCTYPE svg PUBLIC "-//W3C//DTD SVG 1.1//EN" "http://www.w3.org/Graphics/SVG/1.1/DTD/svg11.dtd">
<svg width="100%" height="100%" viewBox="0 0 1179 520" version="1.1" xmlns="http://www.w3.org/2000/svg" xmlns:xlink="http://www.w3.org/1999/xlink" xml:space="preserve" xmlns:serif="http://www.serif.com/" style="fill-rule:evenodd;clip-rule:evenodd;stroke-miterlimit:10;">
    <g id="Artboard1" transform="matrix(1.66356,0,0,1,-864.529,-992.126)">
        <rect x="519.685" y="992.126" width="708.661" height="519.685" style="fill:none;"/>
        <g transform="matrix(2.50466,0,0,4.16667,-382.165,931.508)">
            <text x="458.263px" y="92.365px" style="font-family:'HiraKakuProN-W3', 'Hiragino Kaku Gothic ProN', sans-serif;font-weight:300;font-size:7.5px;fill:rgb(238,40,124);">A</text>
            <text x="463.888px" y="92.365px" style="font-family:'HiraKakuProN-W3', 'Hiragino Kaku Gothic ProN', sans-serif;font-weight:300;font-size:7.5px;fill:rgb(46,48,146);">A</text>
            <text x="469.513px" y="92.365px" style="font-family:'HiraKakuProN-W3', 'Hiragino Kaku Gothic ProN', sans-serif;font-weight:300;font-size:7.5px;fill:rgb(0,166,80);">G</text>
        </g>
        <g transform="matrix(2.50466,0,0,4.16667,-382.165,931.508)">
            <text x="492.013px" y="107.83px" style="font-family:'HiraKakuProN-W3', 'Hiragino Kaku Gothic ProN', sans-serif;font-weight:300;font-size:7.5px;fill:rgb(46,48,146);">A</text>
            <text x="497.638px" y="107.83px" style="font-family:'HiraKakuProN-W3', 'Hiragino Kaku Gothic ProN', sans-serif;font-weight:300;font-size:7.5px;fill:rgb(0,166,80);">G</text>
            <text x="503.293px" y="107.83px" style="font-family:'HiraKakuProN-W3', 'Hiragino Kaku Gothic ProN', sans-serif;font-weight:300;font-size:7.5px;fill:rgb(251,176,64);">C</text>
        </g>
        <g transform="matrix(2.50466,0,0,4.16667,-382.165,931.508)">
            <text x="523.265px" y="84.445px" style="font-family:'HiraKakuProN-W3', 'Hiragino Kaku Gothic ProN', sans-serif;font-weight:300;font-size:7.5px;fill:rgb(0,166,80);">G</text>
            <text x="528.92px" y="84.445px" style="font-family:'HiraKakuProN-W3', 'Hiragino Kaku Gothic ProN', sans-serif;font-weight:300;font-size:7.5px;fill:rgb(251,176,64);">C</text>
            <text x="534.59px" y="84.445px" style="font-family:'HiraKakuProN-W3', 'Hiragino Kaku Gothic ProN', sans-serif;font-weight:300;font-size:7.5px;fill:rgb(36,170,225);">A</text>
        </g>
        <g transform="matrix(2.50466,0,0,4.16667,-382.165,931.508)">
            <text x="503.675px" y="63.197px" style="font-family:'HiraKakuProN-W3', 'Hiragino Kaku Gothic ProN', sans-serif;font-weight:300;font-size:7.5px;fill:rgb(251,176,64);">C</text>
            <text x="509.345px" y="63.197px" style="font-family:'HiraKakuProN-W3', 'Hiragino Kaku Gothic ProN', sans-serif;font-weight:300;font-size:7.5px;fill:rgb(36,170,225);">A</text>
            <text x="514.97px" y="63.197px" style="font-family:'HiraKakuProN-W3', 'Hiragino Kaku Gothic ProN', sans-serif;font-weight:300;font-size:7.5px;fill:rgb(238,40,124);">A</text>
        </g>
        <g transform="matrix(2.50466,0,0,4.16667,-382.165,931.508)">
            <text x="465.29px" y="71.32px" style="font-family:'HiraKakuProN-W3', 'Hiragino Kaku Gothic ProN', sans-serif;font-weight:300;font-size:7.5px;fill:rgb(36,170,225);">A</text>
            <text x="470.915px" y="71.32px" style="font-family:'HiraKakuProN-W3', 'Hiragino Kaku Gothic ProN', sans-serif;font-weight:300;font-size:7.5px;fill:rgb(238,40,124);">A</text>
            <text x="476.54px" y="71.32px" style="font-family:'HiraKakuProN-W3', 'Hiragino Kaku Gothic ProN', sans-serif;font-weight:300;font-size:7.5px;fill:rgb(46,48,146);">A</text>
        </g>
        <g transform="matrix(2.50466,0,0,4.16667,-382.165,931.508)">
            <text x="432.013px" y="107.83px" style="font-family:'HiraKakuProN-W3', 'Hiragino Kaku Gothic ProN', sans-serif;font-weight:300;font-size:7.5px;fill:rgb(36,170,225);">G</text>
            <text x="437.668px" y="107.83px" style="font-family:'HiraKakuProN-W3', 'Hiragino Kaku Gothic ProN', sans-serif;font-weight:300;font-size:7.5px;fill:rgb(238,40,124);">A</text>
            <text x="443.293px" y="107.83px" style="font-family:'HiraKakuProN-W3', 'Hiragino Kaku Gothic ProN', sans-serif;font-weight:300;font-size:7.5px;fill:rgb(46,48,146);">A</text>
        </g>
        <g transform="matrix(2.50466,0,0,4.16667,-382.165,931.508)">
            <text x="533.263px" y="112.517px" style="font-family:'HiraKakuProN-W3', 'Hiragino Kaku Gothic ProN', sans-serif;font-weight:300;font-size:7.5px;fill:rgb(0,166,80);">G</text>
            <text x="538.918px" y="112.517px" style="font-family:'HiraKakuProN-W3', 'Hiragino Kaku Gothic ProN', sans-serif;font-weight:300;font-size:7.5px;fill:rgb(251,176,64);">C</text>
            <text x="544.588px" y="112.517px" style="font-family:'HiraKakuProN-W3', 'Hiragino Kaku Gothic ProN', sans-serif;font-weight:300;font-size:7.5px;fill:rgb(36,170,225);">G</text>
        </g>
        <g transform="matrix(2.50466,0,0,4.16667,-382.165,931.508)">
            <text x="481.225px" y="80.828px" style="font-family:'HiraKakuProN-W3', 'Hiragino Kaku Gothic ProN', sans-serif;font-weight:300;font-size:6px;fill:rgb(35,31,32);">50</text>
        </g>
        <g transform="matrix(2.50466,0,0,4.16667,-382.165,931.508)">
            <text x="505.337px" y="73.746px" style="font-family:'HiraKakuProN-W3', 'Hiragino Kaku Gothic ProN', sans-serif;font-weight:300;font-size:6px;fill:rgb(35,31,32);">49</text>
        </g>
        <g transform="matrix(1.93483,-2.64593,-1.59052,-3.21872,752.826,1368.9)">
            <path d="M-1.441,4.023C1.555,2.335 7.637,2.301 11.23,4.023" style="fill:none;fill-rule:nonzero;stroke:rgb(147,149,152);stroke-width:0.5px;"/>
        </g>
        <g transform="matrix(2.50466,0,0,4.16667,770.685,1324.73)">
            <path d="M0,2.761L-0.482,2.895L-1.137,0.518L-3.461,1.345L-3.627,0.874L-0.799,-0.134L0,2.761Z" style="fill:rgb(147,149,152);fill-rule:nonzero;"/>
        </g>
        <g transform="matrix(2.13806,2.17031,1.30462,-3.5568,816.357,1309.49)">
            <path d="M-1.401,-4.984C2.813,-6.444 12.213,-7.733 17.737,-4.984" style="fill:none;fill-rule:nonzero;stroke:rgb(147,149,152);stroke-width:0.5px;"/>
        </g>
        <g transform="matrix(2.50466,0,0,4.16667,843.022,1356.24)">
            <path d="M0,4.057L-0.293,3.651L1.709,2.213L0.129,0.321L0.514,0L2.438,2.305L0,4.057Z" style="fill:rgb(147,149,152);fill-rule:nonzero;"/>
        </g>
        <g transform="matrix(1.77032,-2.94752,-1.77181,-2.94504,915.48,1373.1)">
            <path d="M-3.208,7.739C2.658,5.877 13.176,5.058 18.673,7.739" style="fill:none;fill-rule:nonzero;stroke:rgb(147,149,152);stroke-width:0.5px;"/>
        </g>
        <g transform="matrix(2.50466,0,0,4.16667,938.008,1293.91)">
            <path d="M0,2.604L-0.465,2.79L-1.377,0.499L-3.596,1.574L-3.813,1.124L-1.111,-0.186L0,2.604Z" style="fill:rgb(147,149,152);fill-rule:nonzero;"/>
        </g>
        <g transform="matrix(-1.10726,-3.7374,-2.24662,1.842,940.561,1202.71)">
            <path d="M-10.298,6.406C-6.186,4.379 0.451,4.404 3.984,6.406" style="fill:none;fill-rule:nonzero;stroke:rgb(147,149,152);stroke-width:0.5px;"/>
        </g>
        <g transform="matrix(2.50466,0,0,4.16667,928.092,1210.75)">
            <path d="M0,-3.261L0.051,-2.763L-2.4,-2.515L-1.975,-0.086L-2.467,0L-2.986,-2.958L0,-3.261Z" style="fill:rgb(147,149,152);fill-rule:nonzero;"/>
        </g>
        <g transform="matrix(-2.41393,1.11133,0.668043,4.01573,832.98,1214.79)">
            <path d="M-18.856,-2.561C-13.438,-4.06 -4.364,-3.961 0.348,-2.561" style="fill:none;fill-rule:nonzero;stroke:rgb(147,149,152);stroke-width:0.5px;"/>
        </g>
        <g transform="matrix(2.50466,0,0,4.16667,831.438,1208.8)">
            <path d="M0,-3.522L0.479,-3.38L-0.223,-1.017L2.186,-0.489L2.078,0L-0.855,-0.644L0,-3.522Z" style="fill:rgb(147,149,152);fill-rule:nonzero;"/>
        </g>
        <g transform="matrix(-0.777733,3.9607,2.38085,1.29381,813.749,1272.17)">
            <path d="M-8.011,-5.73C-4.978,-6.994 0.324,-7.063 4.13,-5.73" style="fill:none;fill-rule:nonzero;stroke:rgb(147,149,152);stroke-width:0.5px;"/>
        </g>
        <g transform="matrix(2.50466,0,0,4.16667,791.881,1281.96)">
            <path d="M0,-1.88L0.369,-2.218L2.029,-0.396L3.727,-2.187L4.088,-1.842L2.023,0.338L0,-1.88Z" style="fill:rgb(147,149,152);fill-rule:nonzero;"/>
        </g>
        <g transform="matrix(2.46841,0.706325,0.424585,-4.10636,897.244,1368.04)">
            <path d="M-0.155,-1.817C4.702,-3.57 12.827,-3.102 21.282,-1.817" style="fill:none;fill-rule:nonzero;stroke:rgb(147,149,152);stroke-width:0.5px;"/>
        </g>
        <g transform="matrix(2.50466,0,0,4.16667,944.651,1381.69)">
            <path d="M0,4.086L-0.326,3.706L1.547,2.103L-0.189,0.352L0.166,0L2.279,2.132L0,4.086Z" style="fill:rgb(147,149,152);fill-rule:nonzero;"/>
        </g>
        <g transform="matrix(1.27522,3.58619,2.15573,-2.12141,683.029,1316.35)">
            <path d="M-0.121,-0.213C0.034,-0.215 0.199,-0.215 0.373,-0.213" style="fill:none;fill-rule:nonzero;stroke:rgb(187,189,192);stroke-width:0.5px;"/>
        </g>
        <g transform="matrix(1.48825,3.35135,2.01456,-2.47579,693.993,1317.1)">
            <path d="M-1.871,-3.709C0.753,-3.925 4.847,-4.051 7.351,-3.709" style="fill:none;fill-rule:nonzero;stroke:rgb(187,189,192);stroke-width:0.5px;stroke-dasharray:1.06,0.53;"/>
        </g>
        <g transform="matrix(1.8233,2.85673,1.71724,-3.03318,698.357,1351.4)">
            <path d="M-0.067,-0.17C0.106,-0.174 0.272,-0.175 0.428,-0.17" style="fill:none;fill-rule:nonzero;stroke:rgb(187,189,192);stroke-width:0.5px;"/>
        </g>
        <g transform="matrix(2.50466,0,0,4.16667,692.37,1342.25)">
            <path d="M0,2.912L0.006,2.412L2.473,2.447L2.328,-0.014L2.826,-0.043L3.002,2.955L0,2.912Z" style="fill:rgb(187,189,192);fill-rule:nonzero;"/>
        </g>
        <g transform="matrix(2.50368,-0.116621,-0.0701031,-4.16503,680.327,1387.36)">
            <path d="M0,0.007C0.166,-0.001 0.332,-0.001 0.5,0.007" style="fill:none;fill-rule:nonzero;stroke:rgb(187,189,192);stroke-width:0.5px;"/>
        </g>
        <g transform="matrix(2.30701,-1.62233,-0.975213,-3.83786,684.295,1390.77)">
            <path d="M-0.215,1.063C1.509,0.626 3.6,0.825 5.242,1.063" style="fill:none;fill-rule:nonzero;stroke:rgb(187,189,192);stroke-width:0.5px;stroke-dasharray:0.95,0.48;"/>
        </g>
        <g transform="matrix(2.13346,-2.18281,-1.31213,-3.54915,696.109,1378.06)">
            <path d="M-0.037,0.131C0.134,0.131 0.302,0.131 0.463,0.131" style="fill:none;fill-rule:nonzero;stroke:rgb(187,189,192);stroke-width:0.5px;"/>
        </g>
        <g transform="matrix(2.50466,0,0,4.16667,696.024,1372.88)">
            <path d="M0,3.494L-0.482,3.358L0.189,0.986L-2.227,0.49L-2.125,0L0.816,0.604L0,3.494Z" style="fill:rgb(187,189,192);fill-rule:nonzero;"/>
        </g>
        <g transform="matrix(1.23079,3.62889,2.1814,-2.0475,747.748,1265.59)">
            <path d="M-0.127,-0.218C0.039,-0.218 0.206,-0.218 0.373,-0.218" style="fill:none;fill-rule:nonzero;stroke:rgb(187,189,192);stroke-width:0.5px;"/>
        </g>
        <g transform="matrix(1.53111,3.29748,1.98218,-2.54711,757.679,1266.02)">
            <path d="M-1.677,-3.415C1.328,-3.835 4.537,-4.154 6.952,-3.415" style="fill:none;fill-rule:nonzero;stroke:rgb(187,189,192);stroke-width:0.5px;stroke-dasharray:0.99,0.5;"/>
        </g>
        <g transform="matrix(2.14016,2.16459,1.30118,-3.56029,762.307,1297.83)">
            <path d="M-0.036,-0.13C0.133,-0.136 0.297,-0.136 0.462,-0.129" style="fill:none;fill-rule:nonzero;stroke:rgb(187,189,192);stroke-width:0.5px;"/>
        </g>
        <g transform="matrix(2.50466,0,0,4.16667,756.934,1288.18)">
            <path d="M0,3.438L-0.088,2.945L2.338,2.513L1.73,0.124L2.215,0L2.955,2.911L0,3.438Z" style="fill:rgb(187,189,192);fill-rule:nonzero;"/>
        </g>
        <g transform="matrix(1.78866,2.91671,1.75329,-2.97555,798.687,1133.33)">
            <path d="M-0.071,-0.173C0.089,-0.167 0.254,-0.168 0.425,-0.173" style="fill:none;fill-rule:nonzero;stroke:rgb(187,189,192);stroke-width:0.5px;"/>
        </g>
        <g transform="matrix(0.715745,3.99292,2.40022,-1.19069,818.576,1147.91)">
            <path d="M-4.709,-6.348C-1.293,-4.944 4.933,-5.249 8.509,-6.348" style="fill:none;fill-rule:nonzero;stroke:rgb(187,189,192);stroke-width:0.5px;stroke-dasharray:1.01,0.51;"/>
        </g>
        <g transform="matrix(-0.116019,4.16219,2.50197,0.193005,810.004,1191.65)">
            <path d="M-0.26,-0.248C-0.089,-0.244 0.076,-0.244 0.237,-0.248" style="fill:none;fill-rule:nonzero;stroke:rgb(187,189,192);stroke-width:0.5px;"/>
        </g>
        <g transform="matrix(2.50466,0,0,4.16667,804.307,1193.47)">
            <path d="M0,-1.949L0.379,-2.276L1.986,-0.406L3.734,-2.146L4.086,-1.791L1.959,0.327L0,-1.949Z" style="fill:rgb(187,189,192);fill-rule:nonzero;"/>
        </g>
        <g transform="matrix(-2.50462,0.0249996,0.0150277,4.16659,781.873,1214.83)">
            <path d="M-0.5,-0.004C-0.334,0 -0.166,-0.001 0,-0.004" style="fill:none;fill-rule:nonzero;stroke:rgb(187,189,192);stroke-width:0.5px;"/>
        </g>
        <g transform="matrix(-2.307,-1.62238,-0.975246,3.83784,766.31,1198.43)">
            <path d="M-6.789,1.376C-4.471,2.172 -1.77,2.175 0.279,1.376" style="fill:none;fill-rule:nonzero;stroke:rgb(187,189,192);stroke-width:0.5px;stroke-dasharray:0.99,0.5;"/>
        </g>
        <g transform="matrix(-1.66714,-3.10956,-1.86922,2.7734,763.548,1200.72)">
            <path d="M-0.413,0.185C-0.246,0.19 -0.081,0.191 0.083,0.185" style="fill:none;fill-rule:nonzero;stroke:rgb(187,189,192);stroke-width:0.5px;"/>
        </g>
        <g transform="matrix(2.50466,0,0,4.16667,769.75,1210.81)">
            <path d="M0,-2.581L-0.033,-2.082L-2.492,-2.256L-2.486,0.21L-2.988,0.211L-2.994,-2.792L0,-2.581Z" style="fill:rgb(187,189,192);fill-rule:nonzero;"/>
        </g>
        <g transform="matrix(-1.43398,-3.4162,-2.05354,2.38552,881.603,1162.4)">
            <path d="M-0.394,0.206C-0.224,0.206 -0.057,0.206 0.107,0.206" style="fill:none;fill-rule:nonzero;stroke:rgb(187,189,192);stroke-width:0.5px;"/>
        </g>
        <g transform="matrix(-0.952622,-3.85353,-2.31643,1.58475,883.309,1136.26)">
            <path d="M-4.99,3.343C-2.372,3.876 -0.29,4.014 2.24,3.344" style="fill:none;fill-rule:nonzero;stroke:rgb(187,189,192);stroke-width:0.5px;stroke-dasharray:1.01,0.5;"/>
        </g>
        <g transform="matrix(-0.255167,-4.14499,-2.49163,0.424487,873.902,1130.65)">
            <path d="M-0.276,0.249C-0.112,0.252 0.055,0.25 0.225,0.249" style="fill:none;fill-rule:nonzero;stroke:rgb(187,189,192);stroke-width:0.5px;"/>
        </g>
        <g transform="matrix(2.50466,0,0,4.16667,878.855,1130.77)">
            <path d="M0,1.177L-0.324,1.558L-2.201,-0.041L-3.658,1.947L-4.062,1.651L-2.285,-0.77L0,1.177Z" style="fill:rgb(187,189,192);fill-rule:nonzero;"/>
        </g>
        <g transform="matrix(-1.57319,3.2422,1.94895,2.6171,938.623,1143.71)">
            <path d="M-0.407,-0.195C-0.243,-0.193 -0.077,-0.192 0.093,-0.195" style="fill:none;fill-rule:nonzero;stroke:rgb(187,189,192);stroke-width:0.5px;"/>
        </g>
        <g transform="matrix(-1.87354,2.76531,1.66228,3.11675,928.434,1173.3)">
            <path d="M-7.171,-2.723C-4.685,-2.397 -1.598,-2.428 1.034,-2.723" style="fill:none;fill-rule:nonzero;stroke:rgb(187,189,192);stroke-width:0.5px;stroke-dasharray:0.94,0.47;"/>
        </g>
        <g transform="matrix(-2.06921,2.34776,1.41128,3.44226,920.734,1169.8)">
            <path d="M-0.455,-0.141C-0.286,-0.14 -0.121,-0.138 0.043,-0.141" style="fill:none;fill-rule:nonzero;stroke:rgb(187,189,192);stroke-width:0.5px;"/>
        </g>
        <g transform="matrix(2.50466,0,0,4.16667,920.872,1172.35)">
            <path d="M0,-3.345L0.49,-3.242L-0.021,-0.83L2.422,-0.496L2.354,0L-0.621,-0.408L0,-3.345Z" style="fill:rgb(187,189,192);fill-rule:nonzero;"/>
        </g>
        <g transform="matrix(-1.51718,3.31525,1.99286,2.52393,977.542,1213.16)">
            <path d="M-0.402,-0.199C-0.234,-0.2 -0.068,-0.198 0.099,-0.199" style="fill:none;fill-rule:nonzero;stroke:rgb(187,189,192);stroke-width:0.5px;"/>
        </g>
        <g transform="matrix(-1.19365,3.66307,2.20194,1.98571,977.004,1246.91)">
            <path d="M-6.644,-3.956C-3.236,-4.439 -0.039,-4.594 2.355,-3.956" style="fill:none;fill-rule:nonzero;stroke:rgb(187,189,192);stroke-width:0.5px;stroke-dasharray:1.03,0.52;"/>
        </g>
        <g transform="matrix(-0.444491,4.10053,2.46491,0.73944,965.811,1250.1)">
            <path d="M-0.292,-0.244C-0.124,-0.247 0.041,-0.247 0.204,-0.244" style="fill:none;fill-rule:nonzero;stroke:rgb(187,189,192);stroke-width:0.5px;"/>
        </g>
        <g transform="matrix(2.50466,0,0,4.16667,961.034,1251.91)">
            <path d="M0,-2.297L0.426,-2.559L1.717,-0.458L3.719,-1.897L4.01,-1.491L1.572,0.262L0,-2.297Z" style="fill:rgb(187,189,192);fill-rule:nonzero;"/>
        </g>
        <g transform="matrix(1.3476,3.51218,2.11124,-2.24181,969.489,1292.65)">
            <path d="M-0.116,-0.212C0.054,-0.213 0.221,-0.213 0.386,-0.212" style="fill:none;fill-rule:nonzero;stroke:rgb(187,189,192);stroke-width:0.5px;"/>
        </g>
        <g transform="matrix(1.88377,2.74601,1.65068,-3.13378,975.437,1291.45)">
            <path d="M-0.832,-2.213C1.77,-2.875 3.886,-2.85 5.883,-2.213" style="fill:none;fill-rule:nonzero;stroke:rgb(187,189,192);stroke-width:0.5px;stroke-dasharray:0.94,0.47;"/>
        </g>
        <g transform="matrix(2.33785,1.49518,0.898783,-3.88916,983.519,1314.59)">
            <path d="M-0.017,-0.089C0.148,-0.092 0.314,-0.093 0.48,-0.089" style="fill:none;fill-rule:nonzero;stroke:rgb(187,189,192);stroke-width:0.5px;"/>
        </g>
        <g transform="matrix(2.50466,0,0,4.16667,978.816,1305.03)">
            <path d="M0,3.792L-0.18,3.325L2.125,2.445L1.078,0.212L1.531,0L2.805,2.72L0,3.792Z" style="fill:rgb(187,189,192);fill-rule:nonzero;"/>
        </g>
        <g transform="matrix(-0.537486,4.0696,2.44631,0.894141,959.926,1203.23)">
            <path d="M-0.303,-0.244C-0.142,-0.244 0.025,-0.245 0.196,-0.244" style="fill:none;fill-rule:nonzero;stroke:rgb(187,189,192);stroke-width:0.5px;"/>
        </g>
        <g transform="matrix(-0.331272,4.13006,2.48266,0.551092,968.68,1230.33)">
            <path d="M-5.282,-4.624C-2.46,-4.816 1.409,-4.872 4.048,-4.624" style="fill:none;fill-rule:nonzero;stroke:rgb(187,189,192);stroke-width:0.5px;stroke-dasharray:1.07,0.53;"/>
        </g>
        <g transform="matrix(-0.0402304,4.16613,2.50434,0.0669258,956.453,1246.7)">
            <path d="M-0.253,-0.249C-0.081,-0.252 0.085,-0.252 0.245,-0.249" style="fill:none;fill-rule:nonzero;stroke:rgb(187,189,192);stroke-width:0.5px;"/>
        </g>
        <g transform="matrix(2.50466,0,0,4.16667,950.898,1248.59)">
            <path d="M0,-1.934L0.377,-2.263L1.996,-0.405L3.732,-2.156L4.086,-1.803L1.973,0.329L0,-1.934Z" style="fill:rgb(187,189,192);fill-rule:nonzero;"/>
        </g>
        <g transform="matrix(2.45736,-0.805962,-0.484479,-4.08797,997.358,1385.13)">
            <path d="M-0.005,0.049C0.166,0.044 0.333,0.045 0.497,0.049" style="fill:none;fill-rule:nonzero;stroke:rgb(187,189,192);stroke-width:0.5px;"/>
        </g>
        <g transform="matrix(2.16978,-2.08138,-1.25116,-3.60957,1002.04,1387.52)">
            <path d="M-0.312,1.164C1.483,0.707 3.079,0.836 4.351,1.164" style="fill:none;fill-rule:nonzero;stroke:rgb(187,189,192);stroke-width:0.5px;stroke-dasharray:1.11,0.55;"/>
        </g>
        <g transform="matrix(1.68834,-3.07775,-1.85009,-2.80866,1010.98,1373.72)">
            <path d="M-0.081,0.183C0.09,0.178 0.255,0.178 0.415,0.183" style="fill:none;fill-rule:nonzero;stroke:rgb(187,189,192);stroke-width:0.5px;"/>
        </g>
        <g transform="matrix(2.50466,0,0,4.16667,1012.05,1370.19)">
            <path d="M0,3.002L-0.5,2.993L-0.453,0.528L-2.914,0.661L-2.941,0.161L0.057,0L0,3.002Z" style="fill:rgb(187,189,192);fill-rule:nonzero;"/>
        </g>
        <g transform="matrix(2.05425,2.38383,1.43297,-3.41738,997.62,1396.71)">
            <path d="M-0.045,-0.143C0.124,-0.142 0.29,-0.143 0.455,-0.143" style="fill:none;fill-rule:nonzero;stroke:rgb(187,189,192);stroke-width:0.5px;"/>
        </g>
        <g transform="matrix(2.14642,2.14737,1.29083,-3.5707,1001.66,1396.07)">
            <path d="M-0.325,-1.17C1.297,-1.267 2.799,-1.309 4.216,-1.17" style="fill:none;fill-rule:nonzero;stroke:rgb(187,189,192);stroke-width:0.5px;stroke-dasharray:1.07,0.53;"/>
        </g>
        <g transform="matrix(2.29478,1.66964,1.00365,-3.81751,1009.94,1409.42)">
            <path d="M-0.021,-0.1C0.146,-0.102 0.311,-0.103 0.476,-0.1" style="fill:none;fill-rule:nonzero;stroke:rgb(187,189,192);stroke-width:0.5px;"/>
        </g>
        <g transform="matrix(2.50466,0,0,4.16667,1005.07,1399.89)">
            <path d="M0,3.73L-0.16,3.256L2.174,2.465L1.215,0.194L1.676,0L2.844,2.766L0,3.73Z" style="fill:rgb(187,189,192);fill-rule:nonzero;"/>
        </g>
        <g transform="matrix(-2.50466,0,0,4.16667,2068.96,-1958.42)">
            <rect x="487.834" y="768.227" width="11.459" height="7.522" style="fill:none;stroke:rgb(209,211,212);stroke-width:0.5px;"/>
        </g>
        <g transform="matrix(-1.26344,-3.5977,-2.16265,2.10182,818.352,1232.99)">
            <path d="M-1.986,1.14C-1.002,1.312 -0.159,1.326 0.654,1.14" style="fill:none;fill-rule:nonzero;stroke:rgb(209,211,212);stroke-width:0.5px;"/>
        </g>
        <g transform="matrix(-2.50466,0,0,4.16667,2189.87,-2017.44)">
            <rect x="511.971" y="775.31" width="11.459" height="7.522" style="fill:none;stroke:rgb(209,211,212);stroke-width:0.5px;"/>
        </g>
        <g transform="matrix(0.282371,-4.1401,-2.48869,-0.469742,884.674,1204.37)">
            <path d="M-2.325,2.076C-0.84,2.779 1.093,2.936 2.385,2.076" style="fill:none;fill-rule:nonzero;stroke:rgb(209,211,212);stroke-width:0.5px;"/>
        </g>
        <g transform="matrix(2.50466,0,0,4.16667,-382.165,931.508)">
            <text x="530.337px" y="96.662px" style="font-family:'HiraKakuProN-W3', 'Hiragino Kaku Gothic ProN', sans-serif;font-weight:300;font-size:6px;fill:rgb(35,31,32);">48</text>
        </g>
        <g transform="matrix(2.50466,0,0,4.16667,-382.165,931.508)">
            <text x="497.323px" y="119.109px" style="font-family:'HiraKakuProN-W3', 'Hiragino Kaku Gothic ProN', sans-serif;font-weight:300;font-size:6px;fill:rgb(35,31,32);">47</text>
            <text x="497.347px" y="126.109px" style="font-family:'HiraKakuProN-W3', 'Hiragino Kaku Gothic ProN', sans-serif;font-weight:300;font-size:6px;fill:rgb(35,31,32);">52</text>
            <text x="497.347px" y="133.109px" style="font-family:'HiraKakuProN-W3', 'Hiragino Kaku Gothic ProN', sans-serif;font-weight:300;font-size:6px;fill:rgb(35,31,32);">92</text>
        </g>
        <g transform="matrix(2.50466,0,0,4.16667,-382.165,931.508)">
            <text x="538.964px" y="122.859px" style="font-family:'HiraKakuProN-W3', 'Hiragino Kaku Gothic ProN', sans-serif;font-weight:300;font-size:6px;fill:rgb(35,31,32);">53</text>
            <text x="538.964px" y="129.859px" style="font-family:'HiraKakuProN-W3', 'Hiragino Kaku Gothic ProN', sans-serif;font-weight:300;font-size:6px;fill:rgb(35,31,32);">93</text>
        </g>
        <g transform="matrix(2.50466,0,0,4.16667,-382.165,931.508)">
            <text x="466.396px" y="106.712px" style="font-family:'HiraKakuProN-W3', 'Hiragino Kaku Gothic ProN', sans-serif;font-weight:300;font-size:6px;fill:rgb(35,31,32);">11</text>
            <text x="466.372px" y="113.712px" style="font-family:'HiraKakuProN-W3', 'Hiragino Kaku Gothic ProN', sans-serif;font-weight:300;font-size:6px;fill:rgb(35,31,32);">46</text>
            <text x="466.396px" y="120.712px" style="font-family:'HiraKakuProN-W3', 'Hiragino Kaku Gothic ProN', sans-serif;font-weight:300;font-size:6px;fill:rgb(35,31,32);">51</text>
        </g>
        <g transform="matrix(2.50466,0,0,4.16667,-382.165,931.508)">
            <text x="443.558px" y="119.223px" style="font-family:'HiraKakuProN-W3', 'Hiragino Kaku Gothic ProN', sans-serif;font-weight:300;font-size:6px;fill:rgb(35,31,32);">10</text>
            <text x="443.534px" y="126.223px" style="font-family:'HiraKakuProN-W3', 'Hiragino Kaku Gothic ProN', sans-serif;font-weight:300;font-size:6px;fill:rgb(35,31,32);">45</text>
            <text x="439.616px" y="133.223px" style="font-family:'HiraKakuProN-W3', 'Hiragino Kaku Gothic ProN', sans-serif;font-weight:300;font-size:6px;fill:rgb(35,31,32);">250</text>
        </g>
        <g transform="matrix(2.50466,0,0,4.16667,-382.165,931.508)">
            <text x="430.087px" y="42.115px" style="font-family:'HiraKakuProN-W3', 'Hiragino Kaku Gothic ProN', sans-serif;font-weight:300;font-size:7.5px;fill:rgb(35,31,32);">query =</text>
            <text x="461.272px" y="42.115px" style="font-family:'HiraKakuProN-W3', 'Hiragino Kaku Gothic ProN', sans-serif;font-weight:300;font-size:7.5px;fill:rgb(36,170,225);">G</text>
            <text x="466.927px" y="42.115px" style="font-family:'HiraKakuProN-W3', 'Hiragino Kaku Gothic ProN', sans-serif;font-weight:300;font-size:7.5px;fill:rgb(238,40,124);">A</text>
            <text x="472.552px" y="42.115px" style="font-family:'HiraKakuProN-W3', 'Hiragino Kaku Gothic ProN', sans-serif;font-weight:300;font-size:7.5px;fill:rgb(46,48,146);">A</text>
            <text x="478.177px" y="42.115px" style="font-family:'HiraKakuProN-W3', 'Hiragino Kaku Gothic ProN', sans-serif;font-weight:300;font-size:7.5px;fill:rgb(0,166,80);">G</text>
            <text x="483.832px" y="42.115px" style="font-family:'HiraKakuProN-W3', 'Hiragino Kaku Gothic ProN', sans-serif;font-weight:300;font-size:7.5px;fill:rgb(251,176,64);">C</text>
            <text x="489.502px" y="42.115px" style="font-family:'HiraKakuProN-W3', 'Hiragino Kaku Gothic ProN', sans-serif;font-weight:300;font-size:7.5px;fill:rgb(36,170,225);">A</text>
            <text x="495.127px" y="42.115px" style="font-family:'HiraKakuProN-W3', 'Hiragino Kaku Gothic ProN', sans-serif;font-weight:300;font-size:7.5px;fill:rgb(238,40,124);">A</text>
            <text x="500.752px" y="42.115px" style="font-family:'HiraKakuProN-W3', 'Hiragino Kaku Gothic ProN', sans-serif;font-weight:300;font-size:7.5px;fill:rgb(46,48,146);">A</text>
            <text x="506.377px" y="42.115px" style="font-family:'HiraKakuProN-W3', 'Hiragino Kaku Gothic ProN', sans-serif;font-weight:300;font-size:7.5px;fill:rgb(0,166,80);">G</text>
            <text x="512.032px" y="42.115px" style="font-family:'HiraKakuProN-W3', 'Hiragino Kaku Gothic ProN', sans-serif;font-weight:300;font-size:7.5px;fill:rgb(251,176,64);">C</text>
            <text x="517.702px" y="42.115px" style="font-family:'HiraKakuProN-W3', 'Hiragino Kaku Gothic ProN', sans-serif;font-weight:300;font-size:7.5px;fill:rgb(36,170,225);">G</text>
        </g>
        <g transform="matrix(2.50466,0,0,4.16667,-382.165,931.508)">
            <text x="430.087px" y="26.552px" style="font-family:'HiraKakuProN-W3', 'Hiragino Kaku Gothic ProN', sans-serif;font-weight:300;font-size:7.5px;fill:rgb(35,31,32);">ref = ...</text>
            <text x="456.165px" y="26.552px" style="font-family:'HiraKakuProN-W3', 'Hiragino Kaku Gothic ProN', sans-serif;font-weight:300;font-size:7.5px;fill:rgb(36,170,225);">G</text>
            <text x="461.82px" y="26.552px" style="font-family:'HiraKakuProN-W3', 'Hiragino Kaku Gothic ProN', sans-serif;font-weight:300;font-size:7.5px;fill:rgb(238,40,124);">A</text>
            <text x="467.445px" y="26.552px" style="font-family:'HiraKakuProN-W3', 'Hiragino Kaku Gothic ProN', sans-serif;font-weight:300;font-size:7.5px;fill:rgb(46,48,146);">A</text>
            <text x="473.07px" y="26.552px" style="font-family:'HiraKakuProN-W3', 'Hiragino Kaku Gothic ProN', sans-serif;font-weight:300;font-size:7.5px;fill:rgb(0,166,80);">G</text>
            <text x="478.725px" y="26.552px" style="font-family:'HiraKakuProN-W3', 'Hiragino Kaku Gothic ProN', sans-serif;font-weight:300;font-size:7.5px;fill:rgb(35,31,32);">...</text>
            <text x="484.125px" y="26.552px" style="font-family:'HiraKakuProN-W3', 'Hiragino Kaku Gothic ProN', sans-serif;font-weight:300;font-size:7.5px;fill:rgb(36,170,225);">G</text>
            <text x="489.78px" y="26.552px" style="font-family:'HiraKakuProN-W3', 'Hiragino Kaku Gothic ProN', sans-serif;font-weight:300;font-size:7.5px;fill:rgb(238,40,124);">A</text>
            <text x="495.405px" y="26.552px" style="font-family:'HiraKakuProN-W3', 'Hiragino Kaku Gothic ProN', sans-serif;font-weight:300;font-size:7.5px;fill:rgb(46,48,146);">A</text>
            <text x="501.03px" y="26.552px" style="font-family:'HiraKakuProN-W3', 'Hiragino Kaku Gothic ProN', sans-serif;font-weight:300;font-size:7.5px;fill:rgb(0,166,80);">G</text>
            <text x="506.685px" y="26.552px" style="font-family:'HiraKakuProN-W3', 'Hiragino Kaku Gothic ProN', sans-serif;font-weight:300;font-size:7.5px;fill:rgb(251,176,64);">C</text>
            <text x="512.355px" y="26.552px" style="font-family:'HiraKakuProN-W3', 'Hiragino Kaku Gothic ProN', sans-serif;font-weight:300;font-size:7.5px;fill:rgb(36,170,225);">A</text>
            <text x="517.98px" y="26.552px" style="font-family:'HiraKakuProN-W3', 'Hiragino Kaku Gothic ProN', sans-serif;font-weight:300;font-size:7.5px;fill:rgb(238,40,124);">A</text>
            <text x="523.605px" y="26.552px" style="font-family:'HiraKakuProN-W3', 'Hiragino Kaku Gothic ProN', sans-serif;font-weight:300;font-size:7.5px;fill:rgb(46,48,146);">A</text>
            <text x="529.23px" y="26.552px" style="font-family:'HiraKakuProN-W3', 'Hiragino Kaku Gothic ProN', sans-serif;font-weight:300;font-size:7.5px;fill:rgb(0,166,80);">G</text>
            <text x="534.885px" y="26.552px" style="font-family:'HiraKakuProN-W3', 'Hiragino Kaku Gothic ProN', sans-serif;font-weight:300;font-size:7.5px;fill:rgb(251,176,64);">C</text>
            <text x="540.555px" y="26.552px" style="font-family:'HiraKakuProN-W3', 'Hiragino Kaku Gothic ProN', sans-serif;font-weight:300;font-size:7.5px;fill:rgb(36,170,225);">G</text>
            <text x="546.21px" y="26.552px" style="font-family:'HiraKakuProN-W3', 'Hiragino Kaku Gothic ProN', sans-serif;font-weight:300;font-size:7.5px;fill:rgb(35,31,32);">...</text>
            <text x="551.61px" y="26.552px" style="font-family:'HiraKakuProN-W3', 'Hiragino Kaku Gothic ProN', sans-serif;font-weight:300;font-size:7.5px;fill:rgb(46,48,146);">A</text>
            <text x="557.235px" y="26.552px" style="font-family:'HiraKakuProN-W3', 'Hiragino Kaku Gothic ProN', sans-serif;font-weight:300;font-size:7.5px;fill:rgb(0,166,80);">G</text>
            <text x="562.89px" y="26.552px" style="font-family:'HiraKakuProN-W3', 'Hiragino Kaku Gothic ProN', sans-serif;font-weight:300;font-size:7.5px;fill:rgb(251,176,64);">C</text>
            <text x="568.56px" y="26.552px" style="font-family:'HiraKakuProN-W3', 'Hiragino Kaku Gothic ProN', sans-serif;font-weight:300;font-size:7.5px;fill:rgb(36,170,225);">G</text>
            <text x="574.215px" y="26.552px" style="font-family:'HiraKakuProN-W3', 'Hiragino Kaku Gothic ProN', sans-serif;font-weight:300;font-size:7.5px;fill:rgb(35,31,32);">...</text>
            <text x="455.906px" y="31.662px" style="font-family:'HiraKakuProN-W3', 'Hiragino Kaku Gothic ProN', sans-serif;font-weight:300;font-size:3.5px;fill:rgb(35,31,32);">10</text>
        </g>
        <g transform="matrix(2.50466,0,0,4.16667,-382.165,931.508)">
            <text x="484.655px" y="31.667px" style="font-family:'HiraKakuProN-W3', 'Hiragino Kaku Gothic ProN', sans-serif;font-weight:300;font-size:3.5px;fill:rgb(35,31,32);">45</text>
        </g>
        <g transform="matrix(2.50466,0,0,4.16667,-382.165,931.508)">
            <text x="512.239px" y="31.667px" style="font-family:'HiraKakuProN-W3', 'Hiragino Kaku Gothic ProN', sans-serif;font-weight:300;font-size:3.5px;fill:rgb(35,31,32);">50</text>
        </g>
        <g transform="matrix(2.50466,0,0,4.16667,-382.165,931.508)">
            <text x="540.403px" y="31.667px" style="font-family:'HiraKakuProN-W3', 'Hiragino Kaku Gothic ProN', sans-serif;font-weight:300;font-size:3.5px;fill:rgb(35,31,32);">55</text>
        </g>
        <g transform="matrix(2.50466,0,0,4.16667,-382.165,931.508)">
            <text x="551.488px" y="31.667px" style="font-family:'HiraKakuProN-W3', 'Hiragino Kaku Gothic ProN', sans-serif;font-weight:300;font-size:3.5px;fill:rgb(35,31,32);">92</text>
        </g>
        <g transform="matrix(-2.50466,0,0,4.16667,2315.1,-1826.47)">
            <rect x="536.971" y="752.393" width="11.459" height="7.522" style="fill:none;stroke:rgb(209,211,212);stroke-width:0.5px;"/>
        </g>
        <g transform="matrix(0,-4.16667,-2.50466,0,947.264,1296.65)">
            <path d="M-2.845,2.314C-1.06,2.846 0.862,2.782 2.314,2.314" style="fill:none;fill-rule:nonzero;stroke:rgb(209,211,212);stroke-width:0.5px;"/>
        </g>
        <g transform="matrix(-2.50466,0,0,4.16667,2149.72,-1580.83)">
            <rect x="503.957" y="715.888" width="11.457" height="21.58" style="fill:none;stroke:rgb(209,211,212);stroke-width:0.5px;"/>
        </g>
        <g transform="matrix(-0.480136,-4.08939,-2.45821,0.798737,862.506,1388.09)">
            <path d="M-2.999,2.102C-1.435,2.706 0.226,2.764 1.659,2.102" style="fill:none;fill-rule:nonzero;stroke:rgb(209,211,212);stroke-width:0.5px;"/>
        </g>
        <g transform="matrix(-2.50466,0,0,4.16667,2358.19,-1578.41)">
            <rect x="545.574" y="719.056" width="11.457" height="14.662" style="fill:none;stroke:rgb(209,211,212);stroke-width:0.5px;"/>
        </g>
        <g transform="matrix(-0.688423,-4.00619,-2.4082,1.14524,965.42,1405.05)">
            <path d="M-2.645,1.755C-1.227,2.464 0.199,2.316 1.255,1.755" style="fill:none;fill-rule:nonzero;stroke:rgb(209,211,212);stroke-width:0.5px;"/>
        </g>
        <g transform="matrix(-2.50466,0,0,4.16667,1994.67,-1684.13)">
            <rect x="473.006" y="728.284" width="11.457" height="21.58" style="fill:none;stroke:rgb(209,211,212);stroke-width:0.5px;"/>
        </g>
        <g transform="matrix(-0.536375,-4.07,-2.44656,0.892295,785.999,1330.52)">
            <path d="M-4.25,2.871C-2.21,3.898 0.005,3.925 2.189,2.871" style="fill:none;fill-rule:nonzero;stroke:rgb(209,211,212);stroke-width:0.5px;"/>
        </g>
        <g transform="matrix(-2.50466,0,0,4.16667,1869.83,-1578.41)">
            <rect x="446" y="715.42" width="15.625" height="21.934" style="fill:none;stroke:rgb(209,211,212);stroke-width:0.5px;"/>
        </g>
        <g transform="matrix(-0.819718,-3.9372,-2.36673,1.36365,715.632,1385.37)">
            <path d="M-3.623,2.107C-1.504,3.157 -0.305,3.204 1.336,2.107" style="fill:none;fill-rule:nonzero;stroke:rgb(209,211,212);stroke-width:0.5px;"/>
        </g>
        <g transform="matrix(2.50466,0,0,4.16667,696.871,1240.28)">
            <path d="M0,22.843C4.432,27.822 14.188,28.089 19.344,25.745C24.117,23.575 24.297,18.797 27.937,18.995C30.812,19.151 36.094,19.214 39.813,19.12C44.486,19.002 46.154,18.989 49.229,21.749C51.527,23.814 55.049,26.409 64.852,26.645C77.82,26.958 80.941,24.782 85.322,20.68C89.852,16.437 91.688,11.335 91.68,6.385C91.674,1.083 90.547,-2.946 87.184,-5.856C81.393,-10.865 70.359,-10.88 62.924,-8.875C58.291,-7.625 46.348,0.551 46.414,9.717C46.465,16.957 48.236,19.509 53.184,22.791C56.955,25.293 68.602,25.915 74.799,24.666C77.861,24.049 79.557,25.494 80.061,27.01C80.945,29.666 85.621,32.87 90.111,33.156C99.002,33.723 94.605,29.317 118.215,29.862" style="fill:none;fill-rule:nonzero;stroke:rgb(88,89,91);stroke-width:0.5px;"/>
        </g>
        <g transform="matrix(2.50466,0,0,4.16667,988.801,1356.22)">
            <path d="M0,4.089L-0.34,3.722L1.469,2.047L-0.334,0.365L0.008,0L2.203,2.049L0,4.089Z" style="fill:rgb(88,89,91);fill-rule:nonzero;"/>
        </g>
    </g>
</svg>
